<svg fill="none" height="69" viewBox="0 0 70 69" width="70" xmlns="http://www.w3.org/2000/svg" xmlns:xlink="http://www.w3.org/1999/xlink"><linearGradient id="a" gradientUnits="userSpaceOnUse" x1="34.8305" x2="34.8305" y1="69.0881" y2=".034697"><stop offset="0" stop-color="#00bd99"></stop><stop offset="1" stop-color="#00b4d1"></stop></linearGradient><path d="m13.6996 0h42.4c7.4 0 13.3001 5.99999 13.3001 13.3v42.4c0 7.4-6.0001 13.3-13.3001 13.3h-42.4c-7.4 0-13.29993-6-13.29993-13.3v-42.4c-.1-7.30001 5.89993-13.3 13.29993-13.3z" fill="url(#a)"></path><g fill="#1b1c1b"><path d="m23.8994 42.1001 5.1-1.8c.4-.1.6-.6.4-.9l-4.2001-10.4c-.1-.3-.0999-.7.2001-1l6.2-6.3c.4-.4.1999-1.1-.4001-1.1h-12.3999c-.2 0-.4.1-.5.2l-5.8 6.6c-.7.9-.6001 2.2.1999 2.9l10.3001 11.5c.4.4.7.4.9.3z"></path><path d="m30.8984 36.3003c.8285 0 1.5-.6716 1.5-1.5s-.6715-1.5-1.5-1.5c-.8284 0-1.5.6716-1.5 1.5s.6716 1.5 1.5 1.5z"></path><path d="m30.9014 43c-.1-.2-.3001-.3-.4001-.2l-8.0999 2.3c-.3.1-.3001.6.0999.6h4c.1 0 .2001 0 .3001.1l2.1999 2.5c.1.1.2001.1.3001.1h3.5c.3 0 .3999-.3.2999-.5z"></path><path d="m56.9995 27.5002-5.8001-6.6c-.1-.2-.3-.2-.5-.2h-12.3999c-.6 0-.8.7-.4 1.1l6.2 6.3c.3.3.3.6.2 1l-4.2 10.4c-.2.4 0 .8.4.9l5.1 1.8c.3.1.6 0 .8-.2l10.2999-11.5c.9-.8 1.0001-2.1.3001-3z"></path><path d="m38.8008 36.3003c.8284 0 1.5-.6716 1.5-1.5s-.6716-1.5-1.5-1.5-1.5.6716-1.5 1.5.6716 1.5 1.5 1.5z"></path><path d="m47.3 45.1003-8.1001-2.3c-.2 0-.3999 0-.3999.2l-2 4.9c-.1.2.1.5.3.5h3.5c.1 0 .2 0 .3-.1l2.2-2.5c.1-.1.2-.1.3-.1h4c.2-.1.2-.5-.1-.6z"></path></g></svg>