<svg height="69" viewBox="0 0 25 40" width="70" fill="none" xmlns="http://www.w3.org/2000/svg">
<path d="M2.63883 7.82373H20.5611C22.0169 7.82373 23.1969 9.02133 23.1969 10.4986V31.2786C23.1969 32.7559 22.0168 33.9535 20.5611 33.9535H2.63882C1.18313 33.9535 0.00305176 32.7559 0.00305176 31.2786V10.4986C0.00305176 9.02133 1.18314 7.82373 2.63883 7.82373Z" fill="#D7B8FF"></path>
<path d="M2.9982 8.02603L15.637 13.9943C16.3805 14.3454 16.856 15.1022 16.856 15.9345V37.4678C16.856 39.0163 15.2856 40.0521 13.8912 39.4234L1.25246 33.7246C0.490849 33.3812 0 32.6148 0 31.769V9.9662C0 8.40162 1.60042 7.36597 2.9982 8.02603Z" fill="#9A42FF"></path>
<path d="M27.1115 0.389893L27.3755 1.10313C27.9972 2.78334 29.322 4.10809 31.0022 4.72983L31.7154 4.99375L31.0022 5.25767C29.322 5.87941 27.9972 7.20416 27.3755 8.88438L27.1115 9.59761L26.8476 8.88438C26.2259 7.20416 24.9011 5.87941 23.2209 5.25767L22.5077 4.99375L23.2209 4.72983C24.9011 4.10809 26.2259 2.78334 26.8476 1.10313L27.1115 0.389893Z" fill="#9A42FF"></path>
</svg>
