<svg width="20" height="20" viewBox="0 0 20 20" fill="none" xmlns="http://www.w3.org/2000/svg">
<g clip-path="url(#clip0_2_2)">
<path d="M10 20C15.5228 20 20 15.5228 20 10C20 4.47715 15.5228 0 10 0C4.47715 0 0 4.47715 0 10C0 15.5228 4.47715 20 10 20Z" fill="url(#paint0_linear_2_2)"/>
<path fill-rule="evenodd" clip-rule="evenodd" d="M14.0369 4.99677L13.9839 5.14082L13.8093 5.60169L13.6934 5.89889C12.8134 8.12642 12.1288 9.18362 11.4012 9.18362C10.9818 9.18362 10.7336 9.05994 10.4123 8.76967L10.3196 8.68349C10.0884 8.46532 9.99103 8.41169 9.76864 8.41169C9.65273 8.41169 9.44533 8.56354 9.18289 8.91799C8.91073 9.28552 8.61227 9.82852 8.29152 10.5437L8.26165 10.6106L11.3835 10.6108L10.9948 11.4354H8.07956V14.8213H7.22266V4.99677H14.0369ZM12.8222 5.82162L8.07951 5.82132V9.09557C8.64776 8.08782 9.18772 7.58187 9.76864 7.58187C10.2203 7.58187 10.4864 7.71189 10.8222 8.01449L10.918 8.10339C11.1338 8.30707 11.217 8.35379 11.4012 8.35379C11.6048 8.35379 12.1442 7.47854 12.8222 5.82162Z" fill="white"/>
</g>
<defs>
<linearGradient id="paint0_linear_2_2" x1="21.8919" y1="20" x2="-4.96778e-07" y2="1.08108" gradientUnits="userSpaceOnUse">
<stop stop-color="#CD5959"/>
<stop offset="1" stop-color="#CC703C"/>
</linearGradient>
<clipPath id="clip0_2_2">
<rect width="20" height="20" fill="white"/>
</clipPath>
</defs>
</svg>
