<svg width="40" height="40" viewBox="0 0 40 40" fill="none" xmlns="http://www.w3.org/2000/svg" id="svg-950663332_13686">
<path d="M20 40C31.0457 40 40 31.0457 40 20C40 8.9543 31.0457 0 20 0C8.9543 0 0 8.9543 0 20C0 31.0457 8.9543 40 20 40Z" fill="#CD6338"></path>
<path fill-rule="evenodd" clip-rule="evenodd" d="M21.0749 6.44755C20.8015 6.51655 20.4931 6.67062 20.2803 6.84442C20.1473 6.95308 18.4476 9.19361 13.5882 15.6662C10.0057 20.4382 6.99471 24.439 6.89725 24.5569C6.26929 25.3163 6.2419 26.3497 6.82876 27.1404C6.89259 27.2264 8.28784 28.6353 9.92926 30.2711C12.8291 33.161 12.9211 33.2489 13.173 33.3706C13.6403 33.5964 14.1311 33.6512 14.6042 33.5303C14.9468 33.4428 15.145 33.3378 15.4881 33.0622C15.6457 32.9355 16.4615 32.3164 17.3009 31.6863C18.1404 31.0561 19.5335 30.0094 20.3967 29.3602C26.531 24.7464 28.457 23.2982 30.5693 21.7112C31.8872 20.7212 33.0295 19.8399 33.1078 19.7529C33.3971 19.4317 33.5928 18.8992 33.5928 18.4339C33.5928 18.0395 33.4551 17.5957 33.2329 17.2738C33.1792 17.1962 30.8177 14.8123 27.9851 11.9765C22.468 6.45295 22.6831 6.65595 22.1748 6.49295C21.8853 6.40008 21.3505 6.378 21.0749 6.44755ZM21.5746 8.73994C21.21 8.80538 20.8074 9.01849 20.5744 9.26958C20.5073 9.34191 20.1315 9.81366 19.7392 10.3179C18.9074 11.3873 14.1584 17.4655 12.5847 19.4751C11.9898 20.2347 11.5032 20.8654 11.5032 20.8769C11.5032 20.9038 12.0822 21.2764 12.4521 21.4878C12.9008 21.7441 13.8255 22.1888 14.2731 22.3636C15.4028 22.8047 16.0934 22.9537 17.2299 23.0014C18.0434 23.0355 18.5534 23.1059 19.1991 23.2736C20.3742 23.5787 21.7491 24.233 22.7968 24.9858C22.9508 25.0963 23.0791 25.166 23.1028 25.152C23.2319 25.0748 30.8712 19.3269 30.9323 19.2609C31.0629 19.1199 31.2495 18.7798 31.3183 18.5576C31.4146 18.2459 31.4096 17.7301 31.3073 17.4301C31.1358 16.9275 31.3305 17.1336 27.1028 12.9827C25.9532 11.8541 24.6074 10.5311 24.112 10.0428C23.6162 9.55394 23.1248 9.09986 23.0186 9.03242C22.6263 8.7832 22.0192 8.66024 21.5746 8.73994Z" fill="#FFFDFD"></path>
<path d="M54.4806 26.4631C53.5791 26.4631 52.7302 26.2992 51.934 25.9713C51.1496 25.6435 50.4646 25.1927 49.8792 24.619C49.2937 24.0335 48.8312 23.3545 48.4917 22.5817C48.1638 21.7972 48 20.9542 48 20.0526C48 19.1511 48.1698 18.3139 48.5093 17.5412C48.8488 16.7684 49.3172 16.0952 49.9143 15.5215C50.5232 14.936 51.2315 14.4853 52.0394 14.1691C52.8473 13.8413 53.7137 13.6774 54.6387 13.6774C55.7042 13.6774 56.6702 13.8705 57.5365 14.2569C58.0236 14.4712 58.4638 14.7306 58.8573 15.0349C59.3887 15.4461 59.3491 16.2205 58.8739 16.6956C58.3229 17.2466 57.4199 17.1569 56.7546 16.7512C56.6494 16.687 56.5413 16.6284 56.4301 16.5752C55.8915 16.3177 55.2827 16.1889 54.6036 16.1889C53.8776 16.1889 53.2278 16.3528 52.6541 16.6806C52.0803 16.9967 51.6296 17.4475 51.3018 18.0329C50.9857 18.6066 50.8276 19.2799 50.8276 20.0526C50.8276 20.8254 50.9857 21.5045 51.3018 22.0899C51.6179 22.6754 52.0512 23.132 52.6014 23.4598C53.1517 23.7877 53.7839 23.9516 54.4982 23.9516C55.2241 23.9516 55.8389 23.817 56.3423 23.5477C56.8575 23.2666 57.2497 22.8685 57.519 22.3534C57.6962 22.0211 57.8175 21.6446 57.883 21.2239C57.9347 20.8921 58.3155 20.6914 58.594 20.8789C58.9402 21.1119 58.7705 21.6526 58.3532 21.646L55.3933 21.599C54.7505 21.5888 54.2348 21.0648 54.2348 20.422C54.2348 19.7718 54.7618 19.2448 55.412 19.2448H60.3466C60.5697 19.2448 60.7505 19.4256 60.7505 19.6487C60.7505 21.1357 60.4812 22.3885 59.9426 23.4071C59.4158 24.414 58.6782 25.1751 57.7297 25.6903C56.7931 26.2055 55.71 26.4631 54.4806 26.4631ZM63.5194 26.2699C62.7774 26.2699 62.1759 25.6684 62.1759 24.9263V14.8628C62.1759 14.1208 62.7774 13.5193 63.5194 13.5193C64.2615 13.5193 64.863 14.1208 64.863 14.8628V24.9263C64.863 25.6684 64.2615 26.2699 63.5194 26.2699ZM70.3205 26.4455C69.536 26.4455 68.8335 26.2523 68.2129 25.866C67.6041 25.4795 67.1183 24.9527 66.7553 24.2853C66.404 23.6179 66.2284 22.8568 66.2284 22.0021C66.2284 21.1474 66.404 20.3863 66.7553 19.7189C67.1183 19.0515 67.6041 18.5247 68.2129 18.1383C68.8335 17.7519 69.536 17.5588 70.3205 17.5588C70.8942 17.5588 71.4094 17.67 71.8661 17.8925C72.3343 18.1149 72.7149 18.4252 73.0077 18.8232C73.3003 19.2096 73.4642 19.6545 73.4994 20.158V23.8463C73.4642 24.3497 73.3003 24.8005 73.0077 25.1986C72.7266 25.5849 72.3519 25.8894 71.8836 26.1118C71.4153 26.3343 70.8942 26.4455 70.3205 26.4455ZM70.865 24.0219C71.4387 24.0219 71.9012 23.8345 72.2524 23.4598C72.6037 23.0734 72.7793 22.5876 72.7793 22.0021C72.7793 21.6041 72.6973 21.2528 72.5334 20.9484C72.3812 20.6439 72.1587 20.4098 71.8661 20.2458C71.585 20.0702 71.2572 19.9824 70.8825 19.9824C70.5079 19.9824 70.1742 20.0702 69.8814 20.2458C69.6005 20.4098 69.3721 20.6439 69.1965 20.9484C69.0326 21.2528 68.9506 21.6041 68.9506 22.0021C68.9506 22.3885 69.0326 22.7339 69.1965 23.0383C69.3604 23.3427 69.5887 23.5828 69.8814 23.7584C70.1742 23.934 70.502 24.0219 70.865 24.0219ZM73.9911 26.2699C73.2637 26.2699 72.674 25.6802 72.674 24.9527V24.1717C72.674 24.037 72.6869 23.9026 72.7127 23.7703L72.8078 23.2826C72.9862 22.3673 72.9862 21.4261 72.8078 20.5108L72.7092 20.0049C72.6857 19.8848 72.674 19.7627 72.674 19.6403V19.0515C72.674 18.3241 73.2637 17.7344 73.9911 17.7344C74.7186 17.7344 75.3083 18.3241 75.3083 19.0515V24.9527C75.3083 25.6802 74.7186 26.2699 73.9911 26.2699ZM80.309 26.4806C79.8055 26.4806 79.3079 26.4162 78.8161 26.2874C78.3361 26.1587 77.8853 25.9772 77.4638 25.743C77.3721 25.688 77.2833 25.6312 77.1975 25.5727C76.7179 25.2456 76.7316 24.5747 77.1397 24.1619C77.5746 23.7221 78.2886 23.7553 78.8432 24.0291C78.8748 24.0447 78.9068 24.0598 78.9391 24.0745C79.3254 24.2384 79.747 24.3204 80.2035 24.3204C80.5197 24.3204 80.7597 24.2736 80.9236 24.1799C81.0993 24.0863 81.1871 23.9575 81.1871 23.7935C81.1871 23.5828 81.0817 23.4247 80.8709 23.3194C80.6719 23.2022 80.4143 23.1027 80.0982 23.0208C79.7821 22.9271 79.4484 22.8276 79.0971 22.7222C78.7459 22.6168 78.4122 22.4704 78.0961 22.2831C77.7799 22.0958 77.5223 21.8382 77.3232 21.5104C77.1242 21.1709 77.0247 20.7435 77.0247 20.2282C77.0247 19.678 77.1652 19.2038 77.4462 18.8057C77.7272 18.3959 78.1253 18.0739 78.6405 17.8397C79.1556 17.6056 79.7586 17.4885 80.4495 17.4885C81.1754 17.4885 81.8427 17.6172 82.4516 17.8749C82.7483 17.9924 83.0182 18.138 83.2613 18.3118C83.7134 18.6348 83.669 19.2777 83.2783 19.6728L83.2379 19.7138C82.8055 20.1511 82.0958 20.0776 81.5208 19.8594C81.1929 19.7307 80.8709 19.6663 80.5548 19.6663C80.2504 19.6663 80.0221 19.7131 79.8699 19.8068C79.7177 19.8887 79.6416 20.0117 79.6416 20.1756C79.6416 20.3512 79.7411 20.4917 79.9402 20.5971C80.1392 20.7025 80.3967 20.7961 80.7129 20.8781C81.029 20.96 81.3627 21.0596 81.714 21.1767C82.0652 21.2937 82.3989 21.4518 82.7151 21.6509C83.0312 21.8499 83.2888 22.1192 83.4879 22.4587C83.6869 22.7866 83.7864 23.2198 83.7864 23.7584C83.7864 24.5897 83.4702 25.2512 82.838 25.743C82.2175 26.2348 81.3744 26.4806 80.309 26.4806ZM88.3529 26.4806C87.8493 26.4806 87.3518 26.4162 86.86 26.2874C86.38 26.1587 85.9292 25.9772 85.5077 25.743C85.416 25.688 85.3272 25.6312 85.2414 25.5727C84.7618 25.2456 84.7755 24.5747 85.1836 24.1619C85.6185 23.7221 86.3325 23.7553 86.8871 24.0291C86.9187 24.0447 86.9507 24.0598 86.983 24.0745C87.3693 24.2384 87.7909 24.3204 88.2474 24.3204C88.5636 24.3204 88.8036 24.2736 88.9676 24.1799C89.1432 24.0863 89.231 23.9575 89.231 23.7935C89.231 23.5828 89.1257 23.4247 88.9148 23.3194C88.7158 23.2022 88.4583 23.1027 88.1421 23.0208C87.826 22.9271 87.4923 22.8276 87.141 22.7222C86.7898 22.6168 86.4561 22.4704 86.1399 22.2831C85.8238 22.0958 85.5662 21.8382 85.3671 21.5104C85.1681 21.1709 85.0686 20.7435 85.0686 20.2282C85.0686 19.678 85.2091 19.2038 85.4901 18.8057C85.7711 18.3959 86.1692 18.0739 86.6844 17.8397C87.1996 17.6056 87.8025 17.4885 88.4934 17.4885C89.2192 17.4885 89.8866 17.6172 90.4956 17.8749C90.7922 17.9924 91.0621 18.138 91.3053 18.3118C91.7573 18.6348 91.7129 19.2777 91.3223 19.6728L91.2818 19.7138C90.8494 20.1511 90.1397 20.0776 89.5647 19.8594C89.2369 19.7307 88.9148 19.6663 88.5987 19.6663C88.2943 19.6663 88.066 19.7131 87.9137 19.8068C87.7616 19.8887 87.6855 20.0117 87.6855 20.1756C87.6855 20.3512 87.785 20.4917 87.9841 20.5971C88.183 20.7025 88.4407 20.7961 88.7568 20.8781C89.0729 20.96 89.4066 21.0596 89.7579 21.1767C90.1091 21.2937 90.4428 21.4518 90.7589 21.6509C91.0751 21.8499 91.3327 22.1192 91.5318 22.4587C91.7307 22.7866 91.8302 23.2198 91.8302 23.7584C91.8302 24.5897 91.5142 25.2512 90.8819 25.743C90.2614 26.2348 89.4183 26.4806 88.3529 26.4806ZM101.039 26.2699C100.402 26.2699 99.8375 25.8586 99.6424 25.252L96.5276 15.5648C96.2583 14.7274 96.8829 13.8705 97.7625 13.8705C98.3328 13.8705 98.8362 14.243 99.003 14.7884L101.481 22.893C101.559 23.1487 101.368 23.4071 101.101 23.4071C100.834 23.4071 100.643 23.1507 100.719 22.8956L103.103 14.9056C103.286 14.2914 103.851 13.8705 104.492 13.8705C105.133 13.8705 105.698 14.2914 105.881 14.9056L108.267 22.9036C108.342 23.1547 108.154 23.4071 107.892 23.4071C107.629 23.4071 107.441 23.1532 107.517 22.9017L109.983 14.7844C110.148 14.2416 110.649 13.8705 111.216 13.8705C112.09 13.8705 112.71 14.7217 112.443 15.5534L109.324 25.2521C109.129 25.8586 108.565 26.2699 107.928 26.2699C107.28 26.2699 106.709 25.8451 106.523 25.2248L104.12 17.2213C104.047 16.9781 104.229 16.7333 104.483 16.7333C104.737 16.7333 104.919 16.9781 104.846 17.2213L102.444 25.2248C102.258 25.8451 101.687 26.2699 101.039 26.2699ZM116.697 26.4455C115.913 26.4455 115.211 26.2523 114.59 25.866C113.981 25.4795 113.495 24.9527 113.132 24.2853C112.781 23.6179 112.605 22.8568 112.605 22.0021C112.605 21.1474 112.781 20.3863 113.132 19.7189C113.495 19.0515 113.981 18.5247 114.59 18.1383C115.211 17.7519 115.913 17.5588 116.697 17.5588C117.271 17.5588 117.786 17.67 118.242 17.8925C118.711 18.1149 119.092 18.4252 119.385 18.8232C119.677 19.2096 119.841 19.6545 119.876 20.158V23.8463C119.841 24.3497 119.677 24.8005 119.385 25.1986C119.103 25.5849 118.729 25.8894 118.26 26.1118C117.792 26.3343 117.271 26.4455 116.697 26.4455ZM117.242 24.0219C117.815 24.0219 118.278 23.8345 118.629 23.4598C118.98 23.0734 119.156 22.5876 119.156 22.0021C119.156 21.6041 119.074 21.2528 118.91 20.9484C118.758 20.6439 118.535 20.4098 118.242 20.2458C117.962 20.0702 117.634 19.9824 117.26 19.9824C116.885 19.9824 116.551 20.0702 116.258 20.2458C115.977 20.4098 115.749 20.6439 115.573 20.9484C115.41 21.2528 115.328 21.6041 115.328 22.0021C115.328 22.3885 115.41 22.7339 115.573 23.0383C115.737 23.3427 115.965 23.5828 116.258 23.7584C116.551 23.934 116.879 24.0219 117.242 24.0219ZM120.368 26.2699C119.641 26.2699 119.051 25.6803 119.051 24.9531V24.1715C119.051 24.0369 119.064 23.9026 119.09 23.7705L119.185 23.2826C119.363 22.3673 119.363 21.4262 119.185 20.5108L119.086 20.0047C119.063 19.8847 119.051 19.7628 119.051 19.6405V19.0512C119.051 18.3239 119.641 17.7344 120.368 17.7344C121.095 17.7344 121.685 18.3239 121.685 19.0512V24.9531C121.685 25.6803 121.095 26.2699 120.368 26.2699ZM124.921 26.2699C124.179 26.2699 123.577 25.6682 123.577 24.9261V14.8631C123.577 14.1209 124.179 13.5193 124.921 13.5193C125.663 13.5193 126.265 14.1209 126.265 14.8631V24.9261C126.265 25.6682 125.663 26.2699 124.921 26.2699ZM129.5 26.2699C128.758 26.2699 128.156 25.6682 128.156 24.9261V14.8631C128.156 14.1209 128.758 13.5193 129.5 13.5193C130.242 13.5193 130.844 14.1209 130.844 14.8631V24.9261C130.844 25.6682 130.242 26.2699 129.5 26.2699ZM136.951 26.4631C136.026 26.4631 135.201 26.2757 134.474 25.9011C133.76 25.5146 133.199 24.9819 132.788 24.3028C132.379 23.6238 132.174 22.8568 132.174 22.0021C132.174 21.1474 132.373 20.3863 132.771 19.7189C133.181 19.0399 133.731 18.5071 134.422 18.1207C135.113 17.7344 135.892 17.5412 136.758 17.5412C137.601 17.5412 138.344 17.7227 138.988 18.0856C139.632 18.4486 140.135 18.952 140.499 19.5961C140.873 20.24 141.061 20.9776 141.061 21.809C141.061 21.9611 141.049 22.1251 141.025 22.3007C141.001 22.6419 140.693 22.8809 140.351 22.8817L134.503 22.8956C133.993 22.8968 133.579 22.4836 133.579 21.9734C133.579 21.465 133.99 21.0526 134.499 21.0511L138.896 21.0387C139.164 21.038 139.27 21.3867 139.047 21.5357C138.869 21.6543 138.628 21.5296 138.6 21.3178C138.563 21.0411 138.499 20.8008 138.408 20.5971C138.268 20.2693 138.057 20.0234 137.777 19.8594C137.507 19.6838 137.173 19.5961 136.775 19.5961C136.353 19.5961 135.985 19.6955 135.669 19.8945C135.364 20.0819 135.125 20.3512 134.949 20.7025C134.785 21.0537 134.703 21.4811 134.703 21.9846C134.703 22.488 134.791 22.9213 134.966 23.2842C135.154 23.6354 135.411 23.9106 135.739 24.1096C136.078 24.297 136.476 24.3907 136.934 24.3907C137.355 24.3907 137.735 24.3204 138.075 24.1799C138.627 23.9327 139.332 23.8741 139.76 24.3017C140.147 24.6889 140.179 25.3242 139.734 25.6434C139.483 25.8233 139.211 25.9736 138.918 26.0943C138.321 26.3401 137.665 26.4631 136.951 26.4631ZM144.725 26.2699C143.983 26.2699 143.381 25.6684 143.381 24.9265V15.5476C143.381 14.8056 143.983 14.2042 144.725 14.2042C145.466 14.2042 146.068 14.8056 146.068 15.5476V24.9265C146.068 25.6684 145.466 26.2699 144.725 26.2699ZM142.591 20.0175C141.96 20.0175 141.449 19.5064 141.449 18.8759C141.449 18.2455 141.96 17.7344 142.591 17.7344H146.858C147.489 17.7344 148 18.2455 148 18.8759C148 19.5064 147.489 20.0175 146.858 20.0175H142.591Z" fill="url(#svg-950663332_13686_paint1_linear_1524_1075)"></path>
<defs>
<lineargradient id="svg-950663332_13686_paint0_linear_1524_1075" x1="-16.4021" y1="20.0406" x2="58.5538" y2="20.0406" gradientUnits="userSpaceOnUse">
<stop stop-color="#FF0F7B"></stop>
<stop offset="1" stop-color="#F89B29"></stop>
</lineargradient>
<lineargradient id="svg-950663332_13686_paint1_linear_1524_1075" x1="6.99471" y1="20.0131" x2="194.384" y2="20.0131" gradientUnits="userSpaceOnUse">
<stop stop-color="#FF0F7B"></stop>
<stop offset="1" stop-color="#F89B29"></stop>
</lineargradient>
</defs>
</svg>