<svg width="1em" height="1em" viewBox="0 0 39 37" fill="none" xmlns="http://www.w3.org/2000/svg" class="md:text-[36px] mr-2 text-[30px]">
  <path d="M38.8408 7.85377C38.8408 7.76651 38.8115 7.70833 38.8115 7.67924V7.65015C38.7822 7.59198 38.7821 7.5338 38.7528 7.50471C38.7235 7.44654 38.6941 7.41745 38.6648 7.35927L38.6355 7.33018C38.6061 7.3011 38.5475 7.24292 38.5181 7.21383C38.5181 7.21383 38.5181 7.21383 38.4888 7.21383C38.4594 7.18475 38.4301 7.18475 38.4008 7.15566L26.109 0.11635H26.0797C26.0503 0.0872624 26.021 0.0872606 25.9917 0.0872606C25.9623 0.0872606 25.933 0.0581708 25.9037 0.0581708C25.8743 0.0581708 25.845 0.0290898 25.8156 0.0290898C25.7863 0.0290898 25.757 0.0290881 25.7276 0C25.6983 0 25.669 0 25.6396 0C25.6103 0 25.581 0 25.5516 0C25.5223 0 25.493 1.77496e-06 25.4636 0.0290898C25.4343 0.0290898 25.4049 0.0290827 25.3756 0.0581708C25.3463 0.0581708 25.3169 0.0872606 25.2876 0.0872606C25.2583 0.0872606 25.2289 0.11635 25.1996 0.11635H25.1703L12.8785 7.15566L0.498711 14.1659C0.440039 14.195 0.410703 14.2241 0.352031 14.2531L0.322693 14.2822C0.293357 14.3113 0.234687 14.3695 0.205351 14.3986C0.176015 14.4277 0.146678 14.4858 0.117342 14.5149C0.117342 14.5149 0.117345 14.544 0.0880088 14.544C0.0586728 14.6022 0.0586692 14.6313 0.0293333 14.6895C0.0293333 14.7476 0 14.8058 0 14.8349C0 14.864 0 14.864 0 14.8931V14.9222V29.0008C0 29.3498 0.176015 29.6698 0.498711 29.8443L12.7905 36.8836C12.9372 36.9709 13.1132 37 13.2892 37C13.4652 37 13.6119 36.9709 13.7879 36.8836C14.0813 36.7091 14.2866 36.3892 14.2866 36.0401V23.6195L25.1409 29.8153C25.2876 29.9025 25.4636 29.9316 25.6396 29.9316C25.8157 29.9316 25.9623 29.9025 26.1383 29.8153C26.4317 29.6407 26.6371 29.3208 26.6371 28.9717V16.5511L37.4914 22.7469C37.638 22.8341 37.8141 22.8632 37.9901 22.8632C38.1661 22.8632 38.3128 22.8341 38.4888 22.7469C38.7821 22.5723 38.9875 22.2524 38.9875 21.9033V7.82468C38.8408 7.94104 38.8408 7.88286 38.8408 7.85377ZM13.2599 20.9143L2.90426 14.9803L13.2599 9.04639L23.6154 14.9803L13.2599 20.9143ZM25.581 13.875L15.2254 7.94103L25.581 2.00707L35.9366 7.94103L25.581 13.875ZM12.2918 34.4403L1.93617 28.5063V16.6384L12.2918 22.5723V34.4403ZM15.2254 22.0487L24.6129 16.6674V27.4009L15.2254 22.0487ZM27.5171 15.0094L36.9046 9.62815V20.3616L27.5171 15.0094Z" fill="currentColor"></path>
</svg>