<svg xmlns="http://www.w3.org/2000/svg" width="60" height="60" viewBox="126 19 20 95" fill="none">

<path d="M89.4512 31.5124C89.4512 24.885 94.8237 19.5125 101.451 19.5125H170.135C176.763 19.5125 182.135 24.885 182.135 31.5124V100.196C182.135 106.824 176.763 112.196 170.135 112.196H101.451C94.8238 112.196 89.4512 106.824 89.4512 100.196V31.5124Z" fill="#6067F9"/>
<path d="M157.319 38.0493C153.248 43.7312 148.154 47.6715 142.135 50.3056C140.045 49.7287 137.901 49.4348 135.789 49.4566C133.678 49.4348 131.533 49.7396 129.443 50.3056C123.424 47.6606 118.33 43.7421 114.259 38.0493C113.029 41.1406 108.294 51.8077 113.976 66.7198C113.976 66.7198 112.158 74.5025 115.5 81.1857C115.5 81.1857 120.333 78.9979 124.175 82.0783C128.192 85.3328 126.907 88.4676 129.737 91.1671C132.176 93.6597 135.8 93.6597 135.8 93.6597C135.8 93.6597 139.425 93.6597 141.863 91.1779C144.693 88.4894 143.42 85.3546 147.425 82.0892C151.257 79.0088 156.1 81.1966 156.1 81.1966C159.431 74.5133 157.624 66.7307 157.624 66.7307C163.284 51.8077 158.56 41.1406 157.319 38.0493ZM117.002 64.6626C113.911 58.3168 113.062 49.609 115.01 42.7298C117.59 49.2606 121.095 52.1887 125.264 55.2799C123.5 58.9481 120.18 62.4095 117.002 64.6626ZM125.895 75.8413C123.457 74.7637 122.945 72.6412 122.945 72.6412C126.265 70.5513 131.152 72.1513 131.305 77.093C128.736 75.5365 127.876 76.7012 125.895 75.8413ZM135.789 93.3876C134.048 93.3876 132.633 92.1358 132.633 90.601C132.633 89.0663 134.048 87.8145 135.789 87.8145C137.531 87.8145 138.946 89.0663 138.946 90.601C138.946 92.1467 137.531 93.3876 135.789 93.3876ZM145.694 75.8413C143.713 76.7121 142.864 75.5365 140.285 77.093C140.448 72.1513 145.313 70.5513 148.644 72.6412C148.644 72.6303 148.122 74.7637 145.694 75.8413ZM154.576 64.6626C151.409 62.4095 148.078 58.959 146.304 55.2799C150.473 52.1887 153.989 49.2498 156.557 42.7298C158.528 49.609 157.679 58.3277 154.576 64.6626Z" fill="#F7F7F7"/>

</svg>