<svg xmlns="http://www.w3.org/2000/svg" version="1.0" width="40" height="40" viewBox="25 4 60 60" preserveAspectRatio="xMidYMid meet">
<g transform="translate(0.000000,67.000000) scale(0.100000,-0.100000)" fill="#f727d2" stroke="none">
<path d="M615 595 c-14 -13 -25 -33 -25 -45 0 -27 43 -70 70 -70 27 0 70 43 70 70 0 12 -11 32 -25 45 -13 14 -33 25 -45 25 -11 0 -32 -11 -45 -25z"/>
<path d="M345 446 c-88 -134 -66 -312 45 -374 90 -50 158 -7 230 145 23 49 49 96 57 106 25 26 62 22 74 -9 13 -35 -2 -79 -46 -138 -39 -50 -38 -63 7 -96 l31 -23 19 23 c10 12 25 47 34 78 41 139 -30 282 -139 282 -49 0 -87 -41 -144 -154 -52 -104 -77 -136 -109 -136 -77 0 -70 107 13 208 l37 45 -30 24 c-53 44 -62 46 -79 19z"/>
</g>
</svg>