<svg width="72" height="72" viewBox="0 0 72 72" fill="none" xmlns="http://www.w3.org/2000/svg">
<rect width="72" height="72" rx="16" fill="#6FBCF0"/>
<path fill-rule="evenodd" clip-rule="evenodd" d="M20.4213 52.7838C23.6496 58.376 29.4321 61.7142 35.8888 61.7142C42.3455 61.7142 48.127 58.376 51.3564 52.7838C54.5848 47.1926 54.5848 40.5163 51.3564 34.924L37.7524 11.3615C36.9241 9.92701 34.8535 9.92701 34.0253 11.3615L20.4213 34.924C17.1929 40.5152 17.1929 47.1915 20.4213 52.7838ZM32.0566 22.5713L34.9571 17.5474C35.3712 16.8301 36.4065 16.8301 36.8206 17.5474L47.9791 36.8748C50.0291 40.4254 50.4139 44.535 49.1335 48.2954C49.0002 47.6819 48.8138 47.0542 48.5626 46.4201C47.0213 42.5304 43.5363 39.5289 38.2023 37.4982C34.5351 36.1071 32.1943 34.0613 31.2431 31.4171C30.018 28.0089 31.2976 24.2924 32.0566 22.5713ZM27.1107 31.1379L23.7986 36.8748C21.2748 41.2459 21.2748 46.4641 23.7986 50.8353C26.3223 55.2064 30.8413 57.815 35.8888 57.815C39.2413 57.815 42.3615 56.6633 44.8184 54.6088C45.1388 53.8021 46.131 50.8492 44.9052 47.8058C43.773 44.9954 41.0482 42.7519 36.8061 41.136C32.011 39.3171 28.8958 36.4774 27.5486 32.6984C27.3631 32.1781 27.2189 31.6568 27.1107 31.1379Z" fill="white"/>
</svg>